# xmcd
#
# Track frame offsets:
#	150
#	18961
#	43972
#	65424
#	78594
#	110940
#	125095
#	141090
#	153867
#	176973
#	192855
#	220196
#
# Disc length: 3423 seconds
#
# Revision: 1
# Processed by: cddbd v1.5.2PL0 Copyright (c) Steve Scherf et al.
# Submitted via: audiograbber 1.83.01
#
DISCID=b30d5d0c
DTITLE=Checkin' Up - Hotel Blues
DYEAR=2002
DGENRE=Blues
TTITLE0=Don't leave me This Way
TTITLE1=Hotel Blues
TTITLE2=Latin Lover
TTITLE3=Gib mir den Wein
TTITLE4=Contrition
TTITLE5=I'm Trying
TTITLE6=Messin' With The Kid
TTITLE7=Check It Out
TTITLE8=Come Back Baby
TTITLE9=Gemein
TTITLE10=USA Blues
TTITLE11=Honey Hush
EXTD=
EXTT0=
EXTT1=
EXTT2=
EXTT3=
EXTT4=
EXTT5=
EXTT6=
EXTT7=
EXTT8=
EXTT9=
EXTT10=
EXTT11=
PLAYORDER=
